<?xml version="1.0" encoding="UTF-8" standalone="no"?>
<svg
   xmlns:dc="http://purl.org/dc/elements/1.1/"
   xmlns:cc="http://creativecommons.org/ns#"
   xmlns:rdf="http://www.w3.org/1999/02/22-rdf-syntax-ns#"
   xmlns:svg="http://www.w3.org/2000/svg"
   xmlns="http://www.w3.org/2000/svg"
   xmlns:sodipodi="http://sodipodi.sourceforge.net/DTD/sodipodi-0.dtd"
   xmlns:inkscape="http://www.inkscape.org/namespaces/inkscape"
   height="500"
   viewBox="0 0 512 250"
   width="1024"
   id="svg2"
   version="1.1"
   inkscape:version="0.91 r13725"
   sodipodi:docname="ic_droid_picture.svg"
   style="fill:#000000"
   inkscape:export-filename="/home/mary/Development/git/thedroidpicture/the-droid-picture-feature-graphic.png"
   inkscape:export-xdpi="90"
   inkscape:export-ydpi="90">
  <metadata
     id="metadata12">
    <rdf:RDF>
      <cc:Work
         rdf:about="">
        <dc:format>image/svg+xml</dc:format>
        <dc:type
           rdf:resource="http://purl.org/dc/dcmitype/StillImage" />
        <dc:title></dc:title>
      </cc:Work>
    </rdf:RDF>
  </metadata>
  <defs
     id="defs10" />
  <sodipodi:namedview
     pagecolor="#ffffff"
     bordercolor="#666666"
     borderopacity="1"
     objecttolerance="10"
     gridtolerance="10"
     guidetolerance="10"
     inkscape:pageopacity="0"
     inkscape:pageshadow="2"
     inkscape:window-width="1920"
     inkscape:window-height="1056"
     id="namedview8"
     showgrid="true"
     inkscape:zoom="1"
     inkscape:cx="530.5"
     inkscape:cy="166.72199"
     inkscape:window-x="0"
     inkscape:window-y="24"
     inkscape:window-maximized="1"
     inkscape:current-layer="layer3"
     fit-margin-top="0"
     fit-margin-left="0"
     fit-margin-right="0"
     fit-margin-bottom="0"
     showguides="true"
     inkscape:guide-bbox="true"
     inkscape:snap-grids="true">
    <inkscape:grid
       type="xygrid"
       id="grid4267"
       originx="0.97412836"
       originy="2.5527285e-06" />
  </sodipodi:namedview>
  <g
     inkscape:groupmode="layer"
     id="layer2"
     inkscape:label="background"
     style="display:inline"
     transform="translate(0,-1.1116266e-5)">
    <rect
       style="fill:#fffafa;fill-opacity:0.98039216;stroke:#000000;stroke-width:0.29787803;stroke-miterlimit:4;stroke-dasharray:none;stroke-opacity:1"
       id="rect4225"
       width="511.70212"
       height="249.70212"
       x="0.14893901"
       y="0.14895013" />
  </g>
  <g
     id="g4408"
     transform="matrix(4,0,0,3.9999996,-98.829709,227.15151)">
    <g
       id="g4200"
       transform="translate(121,-37.499999)">
      <path
         style="fill:none"
         inkscape:connector-curvature="0"
         id="path4"
         d="m 0.97412788,226 24.00000012,0 0,24 -24.00000012,0 z"
         transform="translate(0.20742726,-225.53788)" />
      <rect
         style="display:inline;fill:#2196f3;fill-opacity:1;stroke:none;stroke-width:0.05434144;stroke-miterlimit:4;stroke-dasharray:none;stroke-opacity:1"
         id="rect4337-7"
         width="12.5"
         height="12.5"
         x="0.20742726"
         y="-0.53788275" />
      <rect
         style="display:inline;fill:#64b5f6;fill-opacity:1;stroke:none;stroke-width:0.05434144;stroke-miterlimit:4;stroke-dasharray:none;stroke-opacity:1"
         id="rect4337-7-6"
         width="12.5"
         height="12.5"
         x="12.707427"
         y="-0.53788275" />
      <rect
         style="display:inline;fill:#1976d2;fill-opacity:1;stroke:none;stroke-width:0.05434144;stroke-miterlimit:4;stroke-dasharray:none;stroke-opacity:1"
         id="rect4337-7-2"
         width="12.5"
         height="12.5"
         x="0.20742726"
         y="11.962117" />
      <rect
         style="display:inline;fill:#ff4081;fill-opacity:1;stroke:none;stroke-width:0.05434144;stroke-miterlimit:4;stroke-dasharray:none;stroke-opacity:1"
         id="rect4337-7-2-9"
         width="12.5"
         height="12.5"
         x="12.707427"
         y="11.962117" />
      <g
         transform="matrix(0.37663736,0,0,0.37663736,1.8867095,1.1924691)"
         id="g4502"
         style="fill:#000000">
        <path
           style="fill:none"
           inkscape:connector-curvature="0"
           d="M 0,0 24,0 24,24 0,24 Z"
           id="path4492" />
      </g>
      <g
         transform="matrix(0.37663736,0,0,0.37663736,14.437779,1.192469)"
         id="g4518"
         style="fill:#000000">
        <path
           style="fill:#ffffff;fill-opacity:1"
           inkscape:connector-curvature="0"
           d="M 21,19 21,5 C 21,3.9 20.1,3 19,3 L 5,3 C 3.9,3 3,3.9 3,5 l 0,14 c 0,1.1 0.9,2 2,2 l 14,0 c 1.1,0 2,-0.9 2,-2 z M 8.5,13.5 11,16.51 14.5,12 19,18 5,18 8.5,13.5 Z"
           id="path4508" />
        <path
           style="fill:none"
           inkscape:connector-curvature="0"
           d="M 0,0 24,0 24,24 0,24 Z"
           id="path4510" />
      </g>
      <g
         transform="matrix(0.37663736,0,0,0.37663736,14.437779,13.692468)"
         id="g4534"
         style="fill:#000000">
        <path
           style="fill:none"
           inkscape:connector-curvature="0"
           d="M 0,0 24,0 24,24 0,24 Z"
           id="path4524" />
        <path
           style="fill:#ffffff;fill-opacity:1"
           inkscape:connector-curvature="0"
           d="m 6,18 c 0,0.55 0.45,1 1,1 l 1,0 0,3.5 C 8,23.33 8.67,24 9.5,24 10.33,24 11,23.33 11,22.5 l 0,-3.5 2,0 0,3.5 c 0,0.83 0.67,1.5 1.5,1.5 0.83,0 1.5,-0.67 1.5,-1.5 l 0,-3.5 1,0 c 0.55,0 1,-0.45 1,-1 L 18,8 6,8 6,18 Z M 3.5,8 C 2.67,8 2,8.67 2,9.5 l 0,7 C 2,17.33 2.67,18 3.5,18 4.33,18 5,17.33 5,16.5 l 0,-7 C 5,8.67 4.33,8 3.5,8 Z m 17,0 C 19.67,8 19,8.67 19,9.5 l 0,7 c 0,0.83 0.67,1.5 1.5,1.5 0.83,0 1.5,-0.67 1.5,-1.5 l 0,-7 C 22,8.67 21.33,8 20.5,8 Z m -4.97,-5.84 1.3,-1.3 c 0.2,-0.2 0.2,-0.51 0,-0.71 -0.2,-0.2 -0.51,-0.2 -0.71,0 L 14.64,1.63 C 13.85,1.23 12.95,1 12,1 11.04,1 10.14,1.23 9.34,1.63 L 7.85,0.15 c -0.2,-0.2 -0.51,-0.2 -0.71,0 -0.2,0.2 -0.2,0.51 0,0.71 L 8.45,2.17 C 6.97,3.26 6,5.01 6,7 L 18,7 C 18,5.01 17.03,3.25 15.53,2.16 Z M 10,5 9,5 9,4 l 1,0 0,1 z m 5,0 -1,0 0,-1 1,0 0,1 z"
           id="path4526" />
      </g>
      <g
         transform="matrix(0.37663736,0,0,0.37663736,1.9377792,13.692468)"
         id="g4552"
         style="fill:#000000">
        <circle
           style="fill:#ffffff;fill-opacity:1"
           cx="12"
           cy="12"
           r="3.2"
           id="circle4540" />
        <path
           style="fill:#ffffff;fill-opacity:1"
           inkscape:connector-curvature="0"
           d="M 9,2 7.17,4 4,4 C 2.9,4 2,4.9 2,6 l 0,12 c 0,1.1 0.9,2 2,2 l 16,0 c 1.1,0 2,-0.9 2,-2 L 22,6 C 22,4.9 21.1,4 20,4 L 16.83,4 15,2 9,2 Z m 3,15 C 9.24,17 7,14.76 7,12 7,9.24 9.24,7 12,7 c 2.76,0 5,2.24 5,5 0,2.76 -2.24,5 -5,5 z"
           id="path4542" />
        <path
           style="fill:none"
           inkscape:connector-curvature="0"
           d="M 0,0 24,0 24,24 0,24 Z"
           id="path4544" />
      </g>
      <g
         style="fill:#ffffff;fill-opacity:1"
         transform="matrix(0.35458345,0,0,0.30814075,-20.153578,-0.34361295)"
         id="g4558">
        <path
           style="fill:#ffffff;fill-opacity:1"
           sodipodi:nodetypes="ccccccccccccccccccccccccccccccccccccccccccccc"
           inkscape:connector-curvature="0"
           d="m 79.338,19.329 -0.151,9.967 c 1.208,1.661 2.568,0.153 3.926,-0.302 l 0.151,-7.247 C 82.207,20.688 80.848,19.783 79.338,19.329 Z M 79.791,7.853 c -5.285,2.416 -2.416,9.515 -3.624,13.291 -0.906,2.112 -3.322,3.774 -5.134,4.83 2.718,0.303 4.983,1.511 7.249,2.719 l 0.604,-16.159 c 0,-0.3 0.453,-0.451 0.604,-0.151 l 0,6.496 C 81,18.123 82.51,17.217 83.719,15.858 83.868,12.686 81.301,10.42 79.791,7.853 Z M 64.388,7.249 c -1.208,1.812 -1.058,3.623 0,5.437 l 0.151,0 c 0,-0.303 -0.151,-0.453 -0.151,-0.604 -0.604,-0.907 -0.151,-2.115 0.303,-2.871 2.415,-1.057 5.285,-0.301 7.4,0.151 -2.719,1.813 -5.287,4.531 -4.834,8.004 l -2.869,0 c -0.755,0.452 -1.813,0.906 -1.962,1.962 -0.152,0.755 -0.302,1.814 0.453,2.266 -0.303,-0.757 -0.151,-1.358 0.151,-2.114 0.604,-0.453 1.51,-0.301 2.265,-0.453 1.662,0.301 2.567,1.51 1.962,3.02 0.151,1.511 -1.056,2.719 -1.962,3.473 l 1.812,-0.603 c 5.135,-1.963 2.718,-7.551 3.625,-11.93 C 71.185,9.816 74.356,7.55 76.923,6.493 72.392,6.645 68.315,3.926 64.388,7.249 Z m 23.256,6.343 c -1.057,1.51 -2.87,2.113 -4.228,3.471 1.358,1.21 3.02,1.964 4.379,3.021 -0.755,2.568 -0.454,5.739 -0.604,8.155 -3.171,1.057 -6.645,1.965 -8.91,4.682 -4.229,-2.114 -9.061,-5.587 -13.742,-2.87 -1.057,0.906 -1.209,3.021 -0.454,4.229 -0.755,0.304 -0.905,-1.207 -1.057,-1.811 -0.454,-1.512 0.755,-2.869 1.51,-4.229 2.265,-3.321 7.551,-0.755 8.154,-5.738 0.303,-3.172 -0.453,-6.947 0.755,-9.968 2.417,-3.623 6.041,-4.982 9.363,-7.549 1.663,2.716 3.928,5.435 4.834,8.607 z"
           id="path4560" />
      </g>
    </g>
  </g>
  <g
     inkscape:groupmode="layer"
     id="layer1"
     inkscape:label="logo"
     transform="translate(0,-1.1116266e-5)" />
  <g
     inkscape:groupmode="layer"
     id="layer3"
     inkscape:label="text"
     style="display:inline"
     transform="translate(0,-1.1116266e-5)">
    <text
       xml:space="preserve"
       style="font-style:normal;font-weight:normal;font-size:20px;line-height:125%;font-family:sans-serif;letter-spacing:0px;word-spacing:0px;fill:#000000;fill-opacity:1;stroke:none;stroke-width:1px;stroke-linecap:butt;stroke-linejoin:miter;stroke-opacity:1"
       x="20.759277"
       y="141.65529"
       id="text4236"
       sodipodi:linespacing="125%"><tspan
         sodipodi:role="line"
         x="20.759277"
         y="141.65529"
         id="tspan4240"
         style="font-style:italic;font-variant:normal;font-weight:200;font-stretch:normal;font-size:45px;font-family:Roboto;-inkscape-font-specification:'Roboto Ultra-Light Italic'">The Droid Picture</tspan></text>
  </g>
</svg>
